<svg xmlns="http://www.w3.org/2000/svg" version="1.1" xmlns:xlink="http://www.w3.org/1999/xlink" xmlns:svgjs="http://svgjs.dev/svgjs" width="1000" height="1000" viewBox="0 0 1000 1000"><rect width="1000" height="1000" fill="#755bb4"></rect><g transform="matrix(0.7,0,0,0.7,150.0000000000001,106.25)"><svg viewBox="0 0 320 360" data-background-color="#755bb4" preserveAspectRatio="xMidYMid meet" height="1125" width="1000" xmlns="http://www.w3.org/2000/svg" xmlns:xlink="http://www.w3.org/1999/xlink"><g id="tight-bounds" transform="matrix(1,0,0,1,0,0)"><svg viewBox="0 0 320 360" height="360" width="320"><g><svg></svg></g><g><svg viewBox="0 0 320 360" height="360" width="320"><g><path xmlns="http://www.w3.org/2000/svg" d="M20.961 227.22l3.726 4.658-1.863-6.056c-0.466-2.795-3.726 0.466-1.863 1.398M25.153 224.425c1.397 2.329 2.795 4.658 2.795 6.987 0 3.261 2.795 4.658 5.123 5.589-3.261-3.726-5.124-13.974-7.918-12.576M204.017 26.929c7.918 0 15.371-0.932 23.756 0.931 20.495 5.124 37.729 15.371 49.374 29.811l32.606 52.169c1.397 13.042 4.192 27.482 3.726 43.319 3.261 0 2.795-4.658 6.521-5.59-3.726 9.316-5.59 20.961-6.521 34.469-2.329-7.453 0-18.632 0.466-24.687-3.261 5.124-5.124 1.397-5.124-0.932 0.466-3.726-1.397-3.261-2.795-4.658-5.124-4.658-8.384-9.782-12.11-17.7 2.329-6.055 2.795-14.905-4.658-19.563-2.329-1.397-5.124-3.726-6.521-7.453-1.863-5.124-5.124-11.179-4.193-19.097 0.466-2.329-6.987 5.124-11.179 1.863-18.166-12.576-36.332-27.016-58.224-39.127-11.645 0-20.029-4.192-24.221-9.316-3.726-4.658-0.932-10.713 4.658-11.179 3.261 0 6.987-0.932 9.782 0.932 0.466-1.863 2.329-4.192 4.657-4.192M157.904 16.215l0.932 0.466c4.658 0.932 6.987 7.453 12.11 5.124 0 3.261 0.466 6.521-0.466 8.85-1.397 3.726-5.59 3.726-8.85 3.726-31.208-1.863-49.374 11.179-68.471 22.358-5.124 3.261-10.713 5.59-14.906 9.782-20.029 18.632-41.921 35.866-47.045 70.335l-4.192 38.195c-0.466 4.192-5.124 8.384-4.192 13.508l3.26 22.824c-3.261-3.261-5.124 0.932-4.192 2.795 0.466 1.397 2.329 6.055 5.124 1.863 3.726 6.987 7.453 20.495 12.576 26.55 15.837 18.632 36.332 35.4 53.101 52.169 4.192-0.932 7.453-0.932 8.384-3.727 1.397 2.795-1.397 5.59-3.726 6.056 7.453 4.658 15.837 8.85 27.016 9.781 14.44 0.932 27.948 3.261 40.524 6.522 6.521-1.863 13.042-2.795 20.029-3.261 2.329 0 3.726-3.726 6.521-4.658l0.466-4.658c2.795 4.192 2.329-1.397 0.466-4.192 3.261 2.795 4.192 5.124 5.589 6.987 0-1.397 3.726-6.521 3.727-0.466l0.931-6.055c1.397-0.932 1.863 5.124 3.261 0.931 1.397-4.192 4.192-0.932 6.987-2.329-0.932 1.863-0.466 5.59 2.794 3.261l3.727-3.261c2.329 5.59 6.055 3.261 7.918 2.329 20.495-13.042 40.99-28.413 60.553-43.784l-0.466 6.055 2.329-7.453c2.329 2.329 4.192 0.466 5.124-0.931 2.795-4.658 6.521-9.316 12.577-13.508-7.453 20.029-16.303 35.866-27.482 48.908l-4.658 5.59c0 3.261-0.932 7.453-4.658 7.918-1.863 0.466-5.59-0.932-8.384 1.863-1.397 1.863 3.261 5.59-0.466 2.795-3.261-2.329-6.521 0-10.248 0.932-2.795 0.932 1.863 3.726 2.795 5.589 0.932 1.863 1.863 3.726 1.398 6.056l-5.124-5.59c-6.055 3.261-9.782 9.316-14.906 13.974-2.329 1.863-1.397 5.124-1.397 7.918-3.261 0-6.987-0.932-8.85 0.932-1.397 1.863-0.932 4.658-0.932 7.453-4.658-0.466-5.124-7.453-9.315-6.056-4.192 0.932-8.85 1.397-12.577 3.727 2.795 5.59-4.658 2.329-3.726 3.26-6.987-4.192-13.042-7.453-20.495-4.658-15.837-5.124-35.4-2.795-49.84-0.931 0-2.329 0.466-4.658-0.466-5.124-0.932 2.329-3.726 1.397-3.26 1.397-8.85-6.055-17.7-9.782-27.016-14.905-8.384 0.932-16.303-3.261-18.632-5.59-6.521-6.055-13.974-2.795-20.029-4.192-13.042-3.261-17.7-16.769-19.098-26.084-0.932-4.658-4.658-6.521-6.055-6.056-6.055-19.563-15.371-37.263-22.824-55.429-1.863-4.658-1.397-9.316-1.397-14.44 2.329 0.932 4.658 0.466 4.192-2.794-2.329-15.371-7.918-27.016-13.974-38.195 3.261-15.837 3.726-34.469 11.179-48.443 6.521-12.576 18.632-19.098 27.016-29.811 2.795-3.726 2.795-8.85 5.59-12.11 9.316-9.316 18.632-19.098 28.879-27.482 4.658-3.726 10.247 0 17.234-1.397 2.329-8.384 11.645-15.837 20.495-13.508 3.726 0.932 11.179-8.85 13.508-9.782 3.726-1.397 1.863 3.726 1.863 6.987 8.85-6.987 20.961-10.713 32.14-14.906" fill="#ffffff" fill-rule="nonzero" stroke="none" stroke-width="1" stroke-linecap="butt" stroke-linejoin="miter" stroke-miterlimit="10" stroke-dasharray="" stroke-dashoffset="0" font-family="none" font-weight="none" font-size="none" text-anchor="none" style="mix-blend-mode: normal" data-fill-palette-color="tertiary"></path></g><g transform="matrix(1,0,0,1,105.90951723221066,90)"><svg viewBox="0 0 108.18096553557868 180" height="180" width="108.18096553557868"><g><svg viewBox="0 0 192 319.4647027681951" height="180" width="108.18096553557868"><g transform="matrix(1,0,0,1,0,159.67331339506933)"><svg viewBox="0 0 192 159.79138937312575" height="159.79138937312575" width="192"><g id="textblocktransform"><svg viewBox="0 0 192 159.79138937312575" height="159.79138937312575" width="192" id="textblock"><g><svg viewBox="0 0 192 124.68965517241381" height="124.68965517241381" width="192"><g transform="matrix(1,0,0,1,0,0)"><svg width="192" viewBox="1.100000023841858 -33.04999923706055 52.20000076293945 33.89999771118164" height="124.68965517241381" data-palette-color="#ffffff"><path d="M16.85 0.85L16.85 0.85Q13.1 0.85 10.23-0.5 7.35-1.85 5.73-4.78 4.1-7.7 4.1-12.5L4.1-12.5 4.1-17.9Q4.1-20.7 4.1-23.55 4.1-26.4 4.05-29.3L4.05-29.3Q4.05-31.25 2.2-31.75L2.2-31.75 1.1-32 1.1-33.05 14.6-33.05 14.6-32 13.2-31.7Q11.3-31.25 11.3-29.2L11.3-29.2Q11.25-26.4 11.25-23.58 11.25-20.75 11.25-17.9L11.25-17.9 11.25-11.55Q11.25-6.7 13.23-4.55 15.2-2.4 18.85-2.4L18.85-2.4Q22.7-2.4 24.88-4.73 27.05-7.05 27.05-11.65L27.05-11.65 27.05-29.05Q27.05-30.05 26.65-30.8 26.25-31.55 25.25-31.75L25.25-31.75 24.05-32 24.05-33.05 31.75-33.05 31.75-32 30.35-31.7Q29.4-31.5 29.05-30.8 28.7-30.1 28.7-29.1L28.7-29.1 28.7-11.95Q28.7-5.75 25.45-2.45 22.2 0.85 16.85 0.85ZM42.5 0.7L42.5 0.7Q40.1 0.7 38.17 0.18 36.25-0.35 34.5-1.3L34.5-1.3 34.5-7.2 35.85-7.2 37.35-4.35Q38.3-2.5 39.52-1.6 40.75-0.7 42.65-0.7L42.65-0.7Q45-0.7 46.4-1.73 47.8-2.75 47.8-4.5L47.8-4.5Q47.8-6.1 46.75-7.1 45.7-8.1 43-8.95L43-8.95 40.8-9.65Q37.85-10.55 36.12-12.38 34.4-14.2 34.4-16.95L34.4-16.95Q34.4-19.1 35.55-20.88 36.7-22.65 38.9-23.7 41.1-24.75 44.25-24.75L44.25-24.75Q46.3-24.75 48.02-24.28 49.75-23.8 51.4-22.95L51.4-22.95 51.1-17.6 49.8-17.6 48.25-20.45Q47.45-22.05 46.62-22.68 45.8-23.3 44.1-23.3L44.1-23.3Q42.3-23.3 40.92-22.38 39.55-21.45 39.55-19.8L39.55-19.8Q39.55-18.25 40.7-17.28 41.85-16.3 44.4-15.45L44.4-15.45 46.55-14.8Q50.2-13.65 51.75-11.75 53.3-9.85 53.3-7.2L53.3-7.2Q53.3-3.65 50.47-1.48 47.65 0.7 42.5 0.7Z" opacity="1" transform="matrix(1,0,0,1,0,0)" fill="#ffffff" class="undefined-text-0" data-fill-palette-color="primary" id="text-0"></path></svg></g></svg></g><g transform="matrix(1,0,0,1,0,142.88486841379313)"><svg viewBox="0 0 112.72319999999999 16.90652095933264" height="16.90652095933264" width="112.72319999999999"><g transform="matrix(1,0,0,1,0,0)"><svg width="112.72319999999999" viewBox="5.349999904632568 -42.29999923706055 287.66998291015625 43.14999771118164" height="16.90652095933264" data-palette-color="#ffffff"><path d="M25.2-19.25Q32-17.05 32-10.25L32-10.25Q32-5.05 28.88-2.53 25.75 0 18.45 0L18.45 0 5.35 0 5.35-37.9 18.45-37.9Q25.1-37.9 27.8-35.4 30.5-32.9 30.5-27.75L30.5-27.75Q30.5-24.7 29.23-22.58 27.95-20.45 25.2-19.25L25.2-19.25ZM10.2-33.8L10.2-21.05 18.45-21.05Q25.5-21.05 25.55-27.4L25.55-27.4Q25.55-30.9 24-32.35 22.45-33.8 18.45-33.8L18.45-33.8 10.2-33.8ZM27.05-10.55Q27.05-13.9 24.88-15.43 22.7-16.95 18.45-16.95L18.45-16.95 10.2-16.95 10.2-4.1 18.45-4.1Q23.15-4.1 25.1-5.65 27.05-7.2 27.05-10.55L27.05-10.55ZM43.15-13.45Q43.25-8.85 45.45-6.1 47.65-3.35 52.45-3.35L52.45-3.35Q56.1-3.35 60.45-5.4L60.45-5.4 61.9-1.5Q57.35 0.85 52.05 0.85L52.05 0.85Q47.65 0.85 44.55-1 41.45-2.85 39.85-6.15 38.25-9.45 38.25-13.85L38.25-13.85Q38.25-18.5 39.92-21.78 41.6-25.05 44.45-26.75 47.3-28.45 50.85-28.45L50.85-28.45Q56.3-28.45 59.4-25.05 62.5-21.65 62.5-15.3L62.5-15.3 62.5-13.45 43.15-13.45ZM50.85-24.25Q44.65-24.25 43.45-17.4L43.45-17.4 57.55-17.4Q57.3-20.9 55.65-22.58 54-24.25 50.85-24.25L50.85-24.25ZM81.25-22.95L74.85-22.95 74.85-7.15Q74.85-5.15 75.47-4.42 76.1-3.7 77.8-3.7L77.8-3.7Q79.3-3.7 81-4.1L81-4.1 81 0.15Q78.75 0.65 77 0.65L77 0.65Q73.2 0.65 71.67-0.9 70.15-2.45 70.15-6.1L70.15-6.1 70.15-22.95 66.55-22.95 66.55-27.3 70.15-27.3 70.15-36.8 74.85-36.8 74.85-27.3 81.25-27.3 81.25-22.95ZM99.89-22.95L93.49-22.95 93.49-7.15Q93.49-5.15 94.12-4.42 94.74-3.7 96.44-3.7L96.44-3.7Q97.94-3.7 99.64-4.1L99.64-4.1 99.64 0.15Q97.39 0.65 95.64 0.65L95.64 0.65Q91.84 0.65 90.32-0.9 88.79-2.45 88.79-6.1L88.79-6.1 88.79-22.95 85.19-22.95 85.19-27.3 88.79-27.3 88.79-36.8 93.49-36.8 93.49-27.3 99.89-27.3 99.89-22.95ZM109.69-13.45Q109.79-8.85 111.99-6.1 114.19-3.35 118.99-3.35L118.99-3.35Q122.64-3.35 126.99-5.4L126.99-5.4 128.44-1.5Q123.89 0.85 118.59 0.85L118.59 0.85Q114.19 0.85 111.09-1 107.99-2.85 106.39-6.15 104.79-9.45 104.79-13.85L104.79-13.85Q104.79-18.5 106.47-21.78 108.14-25.05 110.99-26.75 113.84-28.45 117.39-28.45L117.39-28.45Q122.84-28.45 125.94-25.05 129.04-21.65 129.04-15.3L129.04-15.3 129.04-13.45 109.69-13.45ZM117.39-24.25Q111.19-24.25 109.99-17.4L109.99-17.4 124.09-17.4Q123.84-20.9 122.19-22.58 120.54-24.25 117.39-24.25L117.39-24.25ZM148.79-28.25L149.94-28.25 149.94-23.85 148.79-23.85Q144.49-23.85 140.44-20.4L140.44-20.4 140.44 0 135.74 0 135.74-27.65 140.44-27.65 140.44-24.55Q144.54-28.25 148.79-28.25L148.79-28.25ZM181.03-37.9Q193.43-37.9 193.43-26.6L193.43-26.6Q193.43-21.1 190.33-18.23 187.23-15.35 181.03-15.35L181.03-15.35 172.63-15.35 172.63 0 167.78 0 167.78-37.9 181.03-37.9ZM188.48-26.6Q188.48-30.3 186.63-31.98 184.78-33.65 181.03-33.65L181.03-33.65 172.63-33.65 172.63-19.65 181.03-19.65Q188.43-19.65 188.48-26.6L188.48-26.6ZM206.98 0.65Q203.23 0.65 201.58-0.85 199.93-2.35 199.93-5.9L199.93-5.9 199.93-42.3 204.63-42.3 204.63-7.15Q204.63-5.15 205.25-4.42 205.88-3.7 207.63-3.7L207.63-3.7Q209.03-3.7 210.13-4L210.13-4 210.13 0.3Q208.13 0.65 206.98 0.65L206.98 0.65ZM224.38-27.65Q228.78-27.65 231.08-26.18 233.38-24.7 234.13-22.23 234.88-19.75 234.88-16L234.88-16 234.88 0 230.18 0 230.18-2.75Q228.28-0.95 226.38-0.15 224.48 0.65 222.28 0.65L222.28 0.65Q219.68 0.65 217.58-0.48 215.48-1.6 214.25-3.73 213.03-5.85 213.03-8.75L213.03-8.75Q213.03-13.25 215.83-15.73 218.63-18.2 223.38-18.2L223.38-18.2Q227.13-18.2 230.13-16.55L230.13-16.55Q230.08-19 229.63-20.45 229.18-21.9 227.78-22.68 226.38-23.45 223.63-23.45L223.63-23.45 219.93-23.45 219.93-27.65 224.38-27.65ZM222.93-3.4Q224.63-3.4 226.5-4.2 228.38-5 230.18-6.6L230.18-6.6 230.18-12.9Q227.38-14.3 224.08-14.3L224.08-14.3Q221.43-14.3 219.63-13.03 217.83-11.75 217.83-8.75L217.83-8.75Q217.83-5.95 219.35-4.67 220.88-3.4 222.93-3.4L222.93-3.4ZM255.78-28.25Q260.88-28.25 263.35-25.55 265.82-22.85 265.82-16.65L265.82-16.65 265.82 0 261.13 0 261.13-16.65Q261.13-20.55 259.8-22.2 258.48-23.85 255.13-23.85L255.13-23.85Q251.22-23.85 247.32-20.45L247.32-20.45 247.32 0 242.63 0 242.63-27.65 247.32-27.65 247.32-24.7Q251.43-28.25 255.78-28.25L255.78-28.25ZM282.97 0.85Q279.92 0.85 277.57 0.35 275.22-0.15 272.67-1.35L272.67-1.35 272.67-6Q277.42-3.35 282.97-3.35L282.97-3.35Q285.77-3.35 287-4.48 288.22-5.6 288.22-7.45L288.22-7.45Q288.22-9.25 287.25-10.1 286.27-10.95 284.07-11.55L284.07-11.55 280.82-12.35Q277.32-13.2 275.32-15.05 273.32-16.9 273.32-20.5L273.32-20.5Q273.32-24.25 275.77-26.35 278.22-28.45 282.97-28.45L282.97-28.45Q285.42-28.45 287.52-27.98 289.62-27.5 291.72-26.65L291.72-26.65 291.72-22.25Q289.67-23.2 287.67-23.73 285.67-24.25 283.12-24.25L283.12-24.25Q280.47-24.25 279.3-23.23 278.12-22.2 278.12-20.65L278.12-20.65Q278.12-18.95 279.15-18.07 280.17-17.2 282.12-16.7L282.12-16.7 285.42-15.95Q287.92-15.35 289.55-14.45 291.17-13.55 292.1-11.93 293.02-10.3 293.02-7.6L293.02-7.6Q293.02-3.55 290.3-1.35 287.57 0.85 282.97 0.85L282.97 0.85Z" opacity="1" transform="matrix(1,0,0,1,0,0)" fill="#ffffff" class="undefined-text-1" data-fill-palette-color="secondary" id="text-1"></path></svg></g></svg></g></svg></g></svg></g><g transform="matrix(1,0,0,1,36.672,0)"><svg viewBox="0 0 118.656 141.47810015369" height="141.47810015369" width="118.656"><g><svg xmlns="http://www.w3.org/2000/svg" xmlns:xlink="http://www.w3.org/1999/xlink" version="1.1" x="0" y="0" viewBox="19.5 8.896998405456543 69.6916275024414 83.09600067138672" enable-background="new 0 0 100 100" xml:space="preserve" height="141.47810015369" width="118.656" class="icon-icon-0" data-fill-palette-color="accent" id="icon-0"><g fill="#ffffff" data-fill-palette-color="accent"><g fill="#ffffff" data-fill-palette-color="accent"><rect x="75.645" y="50.364" transform="matrix(-0.7072 -0.7071 0.7071 -0.7072 101.3561 144.7075)" fill-rule="evenodd" clip-rule="evenodd" width="10" height="2" fill="#ffffff" data-fill-palette-color="accent"></rect></g><g fill="#ffffff" data-fill-palette-color="accent"><path fill-rule="evenodd" clip-rule="evenodd" d="M62.496 66.626c-0.777 0.778-0.777 2.051 0 2.829l0.059 0.059c0.777 0.777 2.051 0.777 2.828 0l2.652-2.652 11.137-11.137 1.414-1.414-1.414-1.414-0.059-0.059-1.414-1.414-1.414 1.414L62.496 66.626z" fill="#ffffff" data-fill-palette-color="accent"></path></g><g fill="#ffffff" data-fill-palette-color="accent"><path fill-rule="evenodd" clip-rule="evenodd" d="M81.941 55.665L81.941 55.665l-0.707-0.707-0.707 0.707L68.683 67.51l-3.358 3.358c-0.277 0.277-0.348 0.679-0.229 1.028l-3.737 1.106-2.381-2.381 1.1-3.715c0.357 0.136 0.778 0.063 1.064-0.223l3.359-3.358 0 0 12.551-12.551-0.707-0.707-0.029-0.03c-0.001-0.001-0.002-0.001-0.003-0.002l-0.705-0.705L63.056 61.882l0 0-3.358 3.359c-0.031 0.031-0.044 0.072-0.07 0.106-0.099 0.062-0.179 0.155-0.214 0.275l-2.657 8.979c-0.052 0.176-0.004 0.365 0.126 0.495s0.319 0.179 0.495 0.126l8.979-2.657c0.02-0.006 0.031-0.021 0.049-0.029 0.132-0.048 0.257-0.119 0.362-0.225l3.359-3.359 11.844-11.844 0.707-0.707-0.722-0.723L81.941 55.665z" fill="#ffffff" data-fill-palette-color="accent"></path></g><g fill="#ffffff" data-fill-palette-color="accent"><path fill-rule="evenodd" clip-rule="evenodd" d="M88.608 47.644l-4.243-4.242c-0.777-0.778-2.051-0.778-2.828 0l-1.696 1.695c-0.001 0.001-0.002 0.002-0.003 0.003l-1.411 1.411 1.414 1.414 4.243 4.243 1.414 1.414 1.414-1.414 0.848-0.848 0.849-0.849C89.386 49.694 89.386 48.421 88.608 47.644z" fill="#ffffff" data-fill-palette-color="accent"></path></g></g><g fill="#ffffff" data-fill-palette-color="accent"><g fill="#ffffff" data-fill-palette-color="accent"><path d="M80.5 39.65V24.088c0.009-0.063 0.02-0.127 0.02-0.193 0-0.488-0.233-0.923-0.595-1.196l-8.879-8.878-4.484-4.485c-0.096-0.096-0.205-0.171-0.321-0.236-0.025-0.016-0.052-0.029-0.079-0.043-0.204-0.101-0.428-0.16-0.66-0.16H23c-1.93 0-3.5 1.57-3.5 3.5v76.096c0 1.93 1.57 3.5 3.5 3.5h54c1.93 0 3.5-1.57 3.5-3.5v-25.12l-3 3v22.12c0 0.271-0.229 0.5-0.5 0.5H23c-0.271 0-0.5-0.229-0.5-0.5V12.396c0-0.271 0.229-0.5 0.5-0.5h41.001v9.999c0 1.93 1.57 3.5 3.5 3.5H77.5V42.65L80.5 39.65zM67.001 21.895v-7.877l2.39 2.389 5.986 5.988h-7.876C67.229 22.395 67.001 22.166 67.001 21.895z" fill="#ffffff" data-fill-palette-color="accent"></path></g><g fill="#ffffff" data-fill-palette-color="accent"><path d="M29.833 38.918h22.501c0.828 0 1.5-0.672 1.5-1.5s-0.672-1.5-1.5-1.5H29.833c-0.829 0-1.5 0.672-1.5 1.5S29.004 38.918 29.833 38.918z" fill="#ffffff" data-fill-palette-color="accent"></path></g><g fill="#ffffff" data-fill-palette-color="accent"><path d="M53.834 56.918c0-0.828-0.672-1.5-1.5-1.5H29.833c-0.829 0-1.5 0.672-1.5 1.5s0.671 1.5 1.5 1.5h22.501C53.162 58.418 53.834 57.746 53.834 56.918z" fill="#ffffff" data-fill-palette-color="accent"></path></g><g fill="#ffffff" data-fill-palette-color="accent"><path d="M29.833 73.244c-0.829 0-1.5 0.672-1.5 1.5s0.671 1.5 1.5 1.5h11.25c0.829 0 1.5-0.672 1.5-1.5s-0.671-1.5-1.5-1.5H29.833z" fill="#ffffff" data-fill-palette-color="accent"></path></g><g fill="#ffffff" data-fill-palette-color="accent"><path d="M29.833 25.395h11.25c0.829 0 1.5-0.672 1.5-1.5s-0.671-1.5-1.5-1.5h-11.25c-0.829 0-1.5 0.672-1.5 1.5S29.004 25.395 29.833 25.395z" fill="#ffffff" data-fill-palette-color="accent"></path></g><g fill="#ffffff" data-fill-palette-color="accent"><path d="M29.833 19.5h11.25c0.829 0 1.5-0.672 1.5-1.5s-0.671-1.5-1.5-1.5h-11.25c-0.829 0-1.5 0.672-1.5 1.5S29.004 19.5 29.833 19.5z" fill="#ffffff" data-fill-palette-color="accent"></path></g><g fill="#ffffff" data-fill-palette-color="accent"><path d="M65.033 42.418h-35.2c-0.829 0-1.5 0.672-1.5 1.5s0.671 1.5 1.5 1.5h35.2c0.828 0 1.5-0.672 1.5-1.5S65.861 42.418 65.033 42.418z" fill="#ffffff" data-fill-palette-color="accent"></path></g><g fill="#ffffff" data-fill-palette-color="accent"><path d="M66.533 50.418c0-0.828-0.672-1.5-1.5-1.5h-35.2c-0.829 0-1.5 0.672-1.5 1.5s0.671 1.5 1.5 1.5h35.2C65.861 51.918 66.533 51.246 66.533 50.418z" fill="#ffffff" data-fill-palette-color="accent"></path></g></g></svg></g></svg></g><g></g></svg></g></svg></g></svg></g><defs></defs></svg><rect width="320" height="360" fill="none" stroke="none" visibility="hidden"></rect></g></svg></g></svg>